<svg width="220" height="220" viewBox="0 0 220 220" fill="none" xmlns="http://www.w3.org/2000/svg">
<g clip-path="url(#clip0_1_16)">
<rect width="220" height="220" fill="white"/>
<g filter="url(#filter0_i_1_16)">
<circle cx="110" cy="110" r="90" fill="white"/>
</g>
<g filter="url(#filter1_d_1_16)">
<circle cx="110" cy="110" r="95" stroke="#D9D9D9" stroke-width="10" shape-rendering="crispEdges"/>
</g>
<circle cx="110" cy="110" r="80" stroke="#8C8C8C" stroke-width="15" stroke-dasharray="2 35.5"/>
<circle cx="110" cy="110" r="80" stroke="#8C8C8C" stroke-width="3" stroke-dasharray="1 6.5"/>
<path d="M107.964 43.0909V54H106.643V44.4759H106.58L103.916 46.2443V44.902L106.643 43.0909H107.964ZM111.102 54V53.0412L114.703 49.0994C115.125 48.6378 115.473 48.2365 115.747 47.8956C116.02 47.5511 116.223 47.228 116.354 46.9261C116.489 46.6207 116.556 46.3011 116.556 45.9673C116.556 45.5838 116.464 45.2518 116.279 44.9712C116.098 44.6907 115.85 44.4741 115.534 44.3214C115.218 44.1687 114.863 44.0923 114.468 44.0923C114.049 44.0923 113.684 44.1793 113.371 44.3533C113.062 44.5238 112.822 44.7635 112.652 45.0724C112.485 45.3814 112.402 45.7436 112.402 46.1591H111.145C111.145 45.5199 111.292 44.9588 111.587 44.4759C111.881 43.9929 112.283 43.6165 112.79 43.3466C113.302 43.0767 113.875 42.9418 114.511 42.9418C115.15 42.9418 115.717 43.0767 116.21 43.3466C116.704 43.6165 117.091 43.9805 117.371 44.4386C117.652 44.8967 117.792 45.4062 117.792 45.9673C117.792 46.3686 117.719 46.761 117.574 47.1445C117.432 47.5245 117.183 47.9489 116.828 48.4176C116.477 48.8828 115.988 49.451 115.363 50.1222L112.913 52.7429V52.8281H117.984V54H111.102Z" fill="#848484"/>
<path d="M142.964 52.0909V63H141.643V53.4759H141.58L138.916 55.2443V53.902L141.643 52.0909H142.964Z" fill="#848484"/>
<path d="M162.129 84V83.0412L165.73 79.0994C166.153 78.6378 166.501 78.2365 166.774 77.8956C167.048 77.5511 167.25 77.228 167.381 76.9261C167.516 76.6207 167.584 76.3011 167.584 75.9673C167.584 75.5838 167.491 75.2518 167.307 74.9712C167.126 74.6907 166.877 74.4741 166.561 74.3214C166.245 74.1687 165.89 74.0923 165.496 74.0923C165.077 74.0923 164.711 74.1793 164.398 74.3533C164.089 74.5238 163.85 74.7635 163.679 75.0724C163.512 75.3814 163.429 75.7436 163.429 76.1591H162.172C162.172 75.5199 162.319 74.9588 162.614 74.4759C162.909 73.9929 163.31 73.6165 163.818 73.3466C164.329 73.0767 164.903 72.9418 165.538 72.9418C166.178 72.9418 166.744 73.0767 167.238 73.3466C167.731 73.6165 168.118 73.9805 168.399 74.4386C168.679 74.8967 168.82 75.4062 168.82 75.9673C168.82 76.3686 168.747 76.761 168.601 77.1445C168.459 77.5245 168.211 77.9489 167.855 78.4176C167.504 78.8828 167.016 79.451 166.391 80.1222L163.94 82.7429V82.8281H169.011V84H162.129Z" fill="#848484"/>
<path d="M175.815 115.149C175.112 115.149 174.485 115.028 173.935 114.787C173.388 114.545 172.953 114.21 172.63 113.78C172.31 113.347 172.136 112.844 172.108 112.273H173.45C173.479 112.624 173.599 112.928 173.812 113.184C174.026 113.436 174.304 113.631 174.649 113.77C174.993 113.908 175.375 113.977 175.794 113.977C176.263 113.977 176.678 113.896 177.04 113.732C177.403 113.569 177.687 113.342 177.893 113.05C178.099 112.759 178.202 112.422 178.202 112.038C178.202 111.637 178.102 111.284 177.903 110.978C177.705 110.669 177.413 110.428 177.03 110.254C176.646 110.08 176.178 109.993 175.624 109.993H174.75V108.821H175.624C176.057 108.821 176.437 108.743 176.763 108.587C177.094 108.43 177.351 108.21 177.536 107.926C177.724 107.642 177.818 107.308 177.818 106.925C177.818 106.555 177.737 106.234 177.573 105.961C177.41 105.687 177.179 105.474 176.881 105.321C176.586 105.169 176.238 105.092 175.837 105.092C175.46 105.092 175.105 105.162 174.771 105.3C174.441 105.435 174.171 105.632 173.962 105.891C173.752 106.147 173.638 106.456 173.621 106.818H172.342C172.364 106.246 172.536 105.746 172.859 105.316C173.182 104.883 173.605 104.545 174.127 104.304C174.652 104.062 175.229 103.942 175.858 103.942C176.533 103.942 177.112 104.078 177.594 104.352C178.077 104.622 178.449 104.979 178.708 105.423C178.967 105.866 179.097 106.346 179.097 106.861C179.097 107.475 178.935 107.999 178.612 108.432C178.292 108.865 177.857 109.165 177.307 109.332V109.418C177.996 109.531 178.534 109.824 178.921 110.297C179.308 110.765 179.501 111.346 179.501 112.038C179.501 112.631 179.34 113.164 179.017 113.636C178.697 114.105 178.26 114.474 177.706 114.744C177.152 115.014 176.522 115.149 175.815 115.149Z" fill="#848484"/>
<path d="M161.874 143.763V142.676L166.668 135.091H167.456V136.774H166.923L163.301 142.506V142.591H169.757V143.763H161.874ZM167.009 146V143.433V142.926V135.091H168.266V146H167.009Z" fill="#848484"/>
<path d="M141.538 167.149C140.913 167.149 140.35 167.025 139.85 166.776C139.349 166.528 138.948 166.187 138.646 165.754C138.344 165.32 138.179 164.827 138.151 164.273H139.429C139.479 164.766 139.702 165.175 140.1 165.498C140.501 165.817 140.981 165.977 141.538 165.977C141.986 165.977 142.384 165.873 142.732 165.663C143.083 165.453 143.358 165.166 143.557 164.8C143.76 164.431 143.861 164.013 143.861 163.548C143.861 163.072 143.756 162.648 143.547 162.275C143.341 161.899 143.056 161.602 142.694 161.386C142.332 161.169 141.918 161.059 141.453 161.055C141.119 161.052 140.777 161.103 140.425 161.21C140.074 161.313 139.784 161.446 139.557 161.609L138.321 161.46L138.982 156.091H144.649V157.263H140.089L139.706 160.48H139.77C139.994 160.303 140.274 160.155 140.612 160.038C140.949 159.921 141.3 159.862 141.666 159.862C142.334 159.862 142.929 160.022 143.451 160.342C143.976 160.658 144.388 161.091 144.686 161.641C144.988 162.192 145.139 162.82 145.139 163.527C145.139 164.223 144.983 164.844 144.67 165.391C144.362 165.935 143.935 166.364 143.392 166.68C142.849 166.993 142.231 167.149 141.538 167.149Z" fill="#848484"/>
<path d="M109.751 176.149C109.304 176.142 108.857 176.057 108.409 175.893C107.962 175.73 107.553 175.455 107.184 175.068C106.815 174.677 106.518 174.15 106.294 173.486C106.071 172.818 105.959 171.98 105.959 170.972C105.959 170.006 106.049 169.15 106.23 168.404C106.412 167.655 106.674 167.025 107.019 166.513C107.363 165.998 107.779 165.608 108.265 165.341C108.755 165.075 109.308 164.942 109.922 164.942C110.533 164.942 111.076 165.064 111.552 165.309C112.031 165.551 112.422 165.888 112.724 166.321C113.026 166.755 113.221 167.254 113.31 167.818H112.01C111.889 167.328 111.655 166.922 111.307 166.598C110.959 166.275 110.497 166.114 109.922 166.114C109.077 166.114 108.411 166.481 107.924 167.216C107.441 167.951 107.198 168.983 107.195 170.311H107.28C107.479 170.009 107.715 169.752 107.988 169.539C108.265 169.322 108.571 169.155 108.904 169.038C109.238 168.921 109.592 168.862 109.964 168.862C110.589 168.862 111.161 169.018 111.68 169.331C112.198 169.64 112.614 170.068 112.926 170.615C113.239 171.158 113.395 171.781 113.395 172.484C113.395 173.159 113.244 173.777 112.942 174.338C112.64 174.896 112.216 175.339 111.669 175.67C111.126 175.996 110.487 176.156 109.751 176.149ZM109.751 174.977C110.199 174.977 110.6 174.865 110.955 174.642C111.314 174.418 111.596 174.118 111.802 173.741C112.012 173.365 112.116 172.946 112.116 172.484C112.116 172.033 112.015 171.623 111.813 171.254C111.614 170.881 111.339 170.585 110.987 170.364C110.639 170.144 110.241 170.034 109.794 170.034C109.457 170.034 109.142 170.102 108.851 170.237C108.56 170.368 108.304 170.549 108.084 170.78C107.868 171.011 107.697 171.275 107.573 171.574C107.449 171.868 107.386 172.179 107.386 172.506C107.386 172.939 107.488 173.344 107.69 173.72C107.896 174.097 108.176 174.4 108.532 174.631C108.89 174.862 109.297 174.977 109.751 174.977Z" fill="#848484"/>
<path d="M74.4702 167L79.3494 157.348V157.263H73.7244V156.091H80.7131V157.327L75.8551 167H74.4702Z" fill="#848484"/>
<path d="M54.6236 146.149C53.892 146.149 53.2457 146.02 52.6847 145.76C52.1271 145.498 51.6921 145.137 51.3796 144.679C51.0671 144.217 50.9126 143.692 50.9162 143.102C50.9126 142.641 51.0032 142.214 51.1879 141.824C51.3725 141.43 51.6246 141.101 51.9442 140.838C52.2674 140.572 52.6278 140.403 53.0256 140.332V140.268C52.5036 140.134 52.0881 139.841 51.7791 139.39C51.4702 138.935 51.3175 138.418 51.321 137.839C51.3175 137.286 51.4577 136.79 51.7418 136.353C52.0259 135.917 52.4165 135.572 52.9137 135.32C53.4144 135.068 53.9844 134.942 54.6236 134.942C55.2557 134.942 55.8203 135.068 56.3175 135.32C56.8146 135.572 57.2053 135.917 57.4893 136.353C57.777 136.79 57.9226 137.286 57.9261 137.839C57.9226 138.418 57.7646 138.935 57.4521 139.39C57.1431 139.841 56.733 140.134 56.2216 140.268V140.332C56.6158 140.403 56.9709 140.572 57.2869 140.838C57.603 141.101 57.8551 141.43 58.0433 141.824C58.2315 142.214 58.3274 142.641 58.331 143.102C58.3274 143.692 58.1676 144.217 57.8516 144.679C57.5391 145.137 57.104 145.498 56.5465 145.76C55.9925 146.02 55.3516 146.149 54.6236 146.149ZM54.6236 144.977C55.1172 144.977 55.5433 144.897 55.902 144.738C56.2607 144.578 56.5376 144.352 56.733 144.061C56.9283 143.77 57.0277 143.429 57.0312 143.038C57.0277 142.626 56.9212 142.262 56.7116 141.946C56.5021 141.63 56.2163 141.382 55.854 141.201C55.4954 141.02 55.0852 140.929 54.6236 140.929C54.1584 140.929 53.7429 141.02 53.3771 141.201C53.0149 141.382 52.729 141.63 52.5195 141.946C52.3136 142.262 52.2124 142.626 52.2159 143.038C52.2124 143.429 52.3065 143.77 52.4982 144.061C52.6935 144.352 52.9723 144.578 53.3345 144.738C53.6967 144.897 54.1264 144.977 54.6236 144.977ZM54.6236 139.8C55.0142 139.8 55.3604 139.722 55.6623 139.565C55.9677 139.409 56.2074 139.191 56.3814 138.91C56.5554 138.63 56.6442 138.301 56.6477 137.925C56.6442 137.555 56.5572 137.234 56.3867 136.961C56.2163 136.684 55.9801 136.471 55.6783 136.321C55.3764 136.169 55.0249 136.092 54.6236 136.092C54.2152 136.092 53.8583 136.169 53.5529 136.321C53.2475 136.471 53.0114 136.684 52.8445 136.961C52.6776 137.234 52.5959 137.555 52.5994 137.925C52.5959 138.301 52.6793 138.63 52.8498 138.91C53.0238 139.191 53.2635 139.409 53.5689 139.565C53.8743 139.722 54.2259 139.8 54.6236 139.8Z" fill="#848484"/>
<path d="M42.6023 103.942C43.0497 103.945 43.4972 104.031 43.9446 104.197C44.392 104.364 44.8004 104.641 45.1697 105.028C45.5391 105.412 45.8356 105.936 46.0593 106.6C46.283 107.264 46.3949 108.097 46.3949 109.098C46.3949 110.067 46.3026 110.929 46.1179 111.681C45.9368 112.431 45.674 113.063 45.3295 113.578C44.9886 114.093 44.5732 114.483 44.0831 114.75C43.5966 115.016 43.0462 115.149 42.4318 115.149C41.821 115.149 41.2759 115.028 40.7965 114.787C40.3207 114.542 39.93 114.203 39.6246 113.77C39.3228 113.333 39.1293 112.827 39.044 112.251H40.3438C40.4609 112.752 40.6935 113.166 41.0415 113.493C41.3931 113.816 41.8565 113.977 42.4318 113.977C43.2734 113.977 43.9375 113.61 44.424 112.875C44.9141 112.14 45.1591 111.101 45.1591 109.759H45.0739C44.875 110.057 44.6388 110.314 44.3654 110.531C44.092 110.748 43.7884 110.914 43.4545 111.032C43.1207 111.149 42.7656 111.207 42.3892 111.207C41.7642 111.207 41.1907 111.053 40.6687 110.744C40.1502 110.431 39.7347 110.004 39.4222 109.46C39.1133 108.913 38.9588 108.288 38.9588 107.585C38.9588 106.918 39.108 106.307 39.4062 105.753C39.7081 105.195 40.1307 104.751 40.674 104.421C41.2209 104.091 41.8636 103.931 42.6023 103.942ZM42.6023 105.114C42.1548 105.114 41.7518 105.225 41.3931 105.449C41.038 105.669 40.7557 105.968 40.5462 106.344C40.3402 106.717 40.2372 107.131 40.2372 107.585C40.2372 108.04 40.3366 108.453 40.5355 108.826C40.7379 109.196 41.0131 109.49 41.3612 109.711C41.7127 109.927 42.1122 110.036 42.5597 110.036C42.897 110.036 43.2113 109.97 43.5025 109.838C43.7937 109.703 44.0476 109.521 44.2642 109.29C44.4844 109.055 44.6566 108.791 44.7809 108.496C44.9052 108.198 44.9673 107.887 44.9673 107.564C44.9673 107.138 44.8643 106.738 44.6584 106.365C44.456 105.993 44.1754 105.691 43.8168 105.46C43.4616 105.229 43.0568 105.114 42.6023 105.114Z" fill="#848484"/>
<path d="M53.9645 73.0909V84H52.6435V74.4759H52.5795L49.9162 76.2443V74.902L52.6435 73.0909H53.9645ZM60.6602 84.1491C59.8576 84.1491 59.174 83.9308 58.6094 83.494C58.0447 83.0536 57.6133 82.4162 57.315 81.5817C57.0167 80.7436 56.8675 79.7315 56.8675 78.5455C56.8675 77.3665 57.0167 76.3597 57.315 75.5252C57.6168 74.6871 58.0501 74.0479 58.6147 73.6076C59.1829 73.1637 59.8647 72.9418 60.6602 72.9418C61.4556 72.9418 62.1357 73.1637 62.7003 73.6076C63.2685 74.0479 63.7017 74.6871 64 75.5252C64.3018 76.3597 64.4528 77.3665 64.4528 78.5455C64.4528 79.7315 64.3036 80.7436 64.0053 81.5817C63.707 82.4162 63.2756 83.0536 62.7109 83.494C62.1463 83.9308 61.4627 84.1491 60.6602 84.1491ZM60.6602 82.9773C61.4556 82.9773 62.0735 82.5937 62.5138 81.8267C62.9542 81.0597 63.1744 79.9659 63.1744 78.5455C63.1744 77.6009 63.0732 76.7965 62.8707 76.1325C62.6719 75.4684 62.3842 74.9624 62.0078 74.6143C61.6349 74.2663 61.1857 74.0923 60.6602 74.0923C59.8718 74.0923 59.2557 74.4812 58.8118 75.2589C58.3679 76.033 58.146 77.1286 58.146 78.5455C58.146 79.4901 58.2454 80.2926 58.4442 80.9531C58.6431 81.6136 58.929 82.1161 59.3018 82.4606C59.6783 82.805 60.131 82.9773 60.6602 82.9773Z" fill="#848484"/>
<path d="M72.9645 52.0909V63H71.6435V53.4759H71.5795L68.9162 55.2443V53.902L71.6435 52.0909H72.9645ZM79.9371 52.0909V63H78.6161V53.4759H78.5522L75.8888 55.2443V53.902L78.6161 52.0909H79.9371Z" fill="#848484"/>
<g filter="url(#filter2_d_1_16)">
<rect x="145" y="108" width="4" height="35" transform="rotate(90 145 108)" fill="#333333"/>
</g>
<g filter="url(#filter3_d_1_16)">
<rect x="108" y="40" width="4" height="70" fill="#333333"/>
</g>
<g filter="url(#filter4_d_1_16)">
<rect x="159.497" y="59" width="2" height="70" transform="rotate(45 159.497 59)" fill="#FF0000"/>
</g>
<circle cx="109.5" cy="110.5" r="3.5" fill="#FF0000"/>
</g>
<defs>
<filter id="filter0_i_1_16" x="20" y="20" width="185" height="185" filterUnits="userSpaceOnUse" color-interpolation-filters="sRGB">
<feFlood flood-opacity="0" result="BackgroundImageFix"/>
<feBlend mode="normal" in="SourceGraphic" in2="BackgroundImageFix" result="shape"/>
<feColorMatrix in="SourceAlpha" type="matrix" values="0 0 0 0 0 0 0 0 0 0 0 0 0 0 0 0 0 0 127 0" result="hardAlpha"/>
<feOffset dx="5" dy="5"/>
<feGaussianBlur stdDeviation="5"/>
<feComposite in2="hardAlpha" operator="arithmetic" k2="-1" k3="1"/>
<feColorMatrix type="matrix" values="0 0 0 0 0 0 0 0 0 0 0 0 0 0 0 0 0 0 0.25 0"/>
<feBlend mode="normal" in2="shape" result="effect1_innerShadow_1_16"/>
</filter>
<filter id="filter1_d_1_16" x="5" y="5" width="220" height="220" filterUnits="userSpaceOnUse" color-interpolation-filters="sRGB">
<feFlood flood-opacity="0" result="BackgroundImageFix"/>
<feColorMatrix in="SourceAlpha" type="matrix" values="0 0 0 0 0 0 0 0 0 0 0 0 0 0 0 0 0 0 127 0" result="hardAlpha"/>
<feOffset dx="5" dy="5"/>
<feGaussianBlur stdDeviation="5"/>
<feComposite in2="hardAlpha" operator="out"/>
<feColorMatrix type="matrix" values="0 0 0 0 0 0 0 0 0 0 0 0 0 0 0 0 0 0 0.25 0"/>
<feBlend mode="normal" in2="BackgroundImageFix" result="effect1_dropShadow_1_16"/>
<feBlend mode="normal" in="SourceGraphic" in2="effect1_dropShadow_1_16" result="shape"/>
</filter>
<filter id="filter2_d_1_16" x="110" y="107" width="37" height="6" filterUnits="userSpaceOnUse" color-interpolation-filters="sRGB">
<feFlood flood-opacity="0" result="BackgroundImageFix"/>
<feColorMatrix in="SourceAlpha" type="matrix" values="0 0 0 0 0 0 0 0 0 0 0 0 0 0 0 0 0 0 127 0" result="hardAlpha"/>
<feOffset dx="1"/>
<feGaussianBlur stdDeviation="0.5"/>
<feComposite in2="hardAlpha" operator="out"/>
<feColorMatrix type="matrix" values="0 0 0 0 0 0 0 0 0 0 0 0 0 0 0 0 0 0 0.25 0"/>
<feBlend mode="normal" in2="BackgroundImageFix" result="effect1_dropShadow_1_16"/>
<feBlend mode="normal" in="SourceGraphic" in2="effect1_dropShadow_1_16" result="shape"/>
</filter>
<filter id="filter3_d_1_16" x="108" y="39" width="6" height="72" filterUnits="userSpaceOnUse" color-interpolation-filters="sRGB">
<feFlood flood-opacity="0" result="BackgroundImageFix"/>
<feColorMatrix in="SourceAlpha" type="matrix" values="0 0 0 0 0 0 0 0 0 0 0 0 0 0 0 0 0 0 127 0" result="hardAlpha"/>
<feOffset dx="1"/>
<feGaussianBlur stdDeviation="0.5"/>
<feComposite in2="hardAlpha" operator="out"/>
<feColorMatrix type="matrix" values="0 0 0 0 0 0 0 0 0 0 0 0 0 0 0 0 0 0 0.25 0"/>
<feBlend mode="normal" in2="BackgroundImageFix" result="effect1_dropShadow_1_16"/>
<feBlend mode="normal" in="SourceGraphic" in2="effect1_dropShadow_1_16" result="shape"/>
</filter>
<filter id="filter4_d_1_16" x="110" y="58" width="52.9117" height="52.9117" filterUnits="userSpaceOnUse" color-interpolation-filters="sRGB">
<feFlood flood-opacity="0" result="BackgroundImageFix"/>
<feColorMatrix in="SourceAlpha" type="matrix" values="0 0 0 0 0 0 0 0 0 0 0 0 0 0 0 0 0 0 127 0" result="hardAlpha"/>
<feOffset dx="1"/>
<feGaussianBlur stdDeviation="0.5"/>
<feComposite in2="hardAlpha" operator="out"/>
<feColorMatrix type="matrix" values="0 0 0 0 0 0 0 0 0 0 0 0 0 0 0 0 0 0 0.25 0"/>
<feBlend mode="normal" in2="BackgroundImageFix" result="effect1_dropShadow_1_16"/>
<feBlend mode="normal" in="SourceGraphic" in2="effect1_dropShadow_1_16" result="shape"/>
</filter>
<clipPath id="clip0_1_16">
<rect width="220" height="220" fill="white"/>
</clipPath>
</defs>
</svg>